<svg xmlns="http://www.w3.org/2000/svg" version="1.1" xmlns:xlink="http://www.w3.org/1999/xlink" xmlns:svgjs="http://svgjs.dev/svgjs" viewBox="0 0 800 800" opacity="0.72"><defs><filter id="bbburst-blur-1" x="-100%" y="-100%" width="400%" height="400%"><feGaussianBlur in="SourceGraphic" stdDeviation="1"></feGaussianBlur></filter><filter id="bbburst-blur-2" x="-100%" y="-100%" width="400%" height="400%"><feGaussianBlur in="SourceGraphic" stdDeviation="2"></feGaussianBlur></filter><filter id="bbburst-blur-3" x="-100%" y="-100%" width="400%" height="400%"><feGaussianBlur in="SourceGraphic" stdDeviation="4"></feGaussianBlur></filter><filter id="bbburst-blur-4" x="-100%" y="-100%" width="400%" height="400%"><feGaussianBlur in="SourceGraphic" stdDeviation="12"></feGaussianBlur></filter><symbol id="bbburst-shape-1" viewBox="0 0 194 167"><path d="m97 0 96.129 166.5H.871L97 0Z"></path></symbol><symbol id="bbburst-shape-2" viewBox="0 0 126 115"><path d="m63 0 62.77 43.877-23.976 70.996H24.206L.23 43.877 63 0Z"></path></symbol><symbol id="bbburst-shape-3" viewBox="0 0 131 127"><path d="m66 0 66 63.5L66 127 0 63.5 66 0Z"></path></symbol><symbol id="bbburst-shape-4" viewBox="0 0 149 143"><path d="M71.647 2.781c.898-2.764 4.808-2.764 5.706 0l15.445 47.534a3 3 0 0 0 2.853 2.073h49.98c2.906 0 4.115 3.719 1.764 5.427L106.96 87.193a2.999 2.999 0 0 0-1.09 3.354l15.445 47.534c.898 2.764-2.266 5.062-4.617 3.354l-40.435-29.378a3 3 0 0 0-3.526 0l-40.435 29.378c-2.351 1.708-5.515-.59-4.617-3.354L43.13 90.547a3 3 0 0 0-1.09-3.354L1.605 57.815c-2.35-1.708-1.142-5.427 1.764-5.427h49.98a3 3 0 0 0 2.853-2.073L71.647 2.781Z"></path></symbol><symbol id="bbburst-shape-5" viewBox="0 0 145 145"><circle cx="72.5" cy="72.5" r="72.5"></circle></symbol><symbol id="bbburst-shape-6" viewBox="0 0 133 116"><path d="M59.7487 10.2513c-13.6683-13.66839-35.8291-13.66839-49.4974 0-13.66839 13.6683-13.66839 35.8291 0 49.4974l49.4974-49.4974ZM66.5 66.5 41.7513 91.2487 66.5 115.997l24.7487-24.7483L66.5 66.5Zm56.249-6.7513c13.668-13.6683 13.668-35.8291 0-49.4974-13.669-13.66839-35.8294-13.66839-49.4977 0l49.4977 49.4974Zm-112.4977 0 31.5 31.5 49.4974-49.4974-31.5-31.5-49.4974 49.4974Zm80.9974 31.5 31.5003-31.5-49.4977-49.4974-31.5 31.5 49.4974 49.4974Z"></path></symbol><symbol id="bbburst-shape-7" viewBox="0 0 139 124"><path fill-rule="evenodd" clip-rule="evenodd" d="M70.1641 15.0917C54.6093.764854 37.8293-2.10782 24.4032 2.82615 10.3804 7.97941.763366 21.4591 1.00047 37.0608c.1068 7.0273 2.86132 13.7317 7.0039 20.2001C12.1442 63.7249 17.853 70.2322 24.25 76.9024c3.8209 3.9842 7.8871 8.0312 12.0767 12.201h.0001c10.0335 9.9862 20.7748 20.6766 30.5497 32.8956 1.38 1.725 3.8972 2.005 5.6223.624.6706-.536 1.1228-1.244 1.3439-2.011 9.5768-11.748 20.0328-22.0735 29.8163-31.7351 4.19-4.1373 8.256-8.1528 12.078-12.1062 6.396-6.6176 12.106-13.0752 16.247-19.4911 4.144-6.4196 6.905-13.0811 7.012-20.0691.237-15.5124-9.399-28.8902-23.411-33.99923-13.32-4.85681-29.9542-2.08621-45.4209 11.88043Zm-3.7351 7.4919C52.1278 8.44857 37.6826 6.46918 27.1626 10.3352 16.2859 14.3323 8.8148 24.7824 8.99955 36.9392c.07575 4.9844 2.03755 10.2234 5.74165 16.0072 3.707 5.7881 8.9752 11.8418 15.2827 18.4187 3.5798 3.7328 7.4978 7.6329 11.6 11.7163 9.0476 9.0063 18.9911 18.9046 28.1786 29.8666 9.2999-11.068 19.4036-21.0473 28.5839-30.1144l.0007-.0006c4.1019-4.0508 8.0189-7.9196 11.5979-11.6222 6.307-6.5252 11.573-12.5298 15.278-18.2697 3.703-5.7362 5.658-10.924 5.734-15.8531.184-12.0276-7.267-22.3914-18.153-26.3608-10.71-3.90518-25.4722-1.80041-40.0023 12.867-1.5547 1.5694-4.0874 1.5813-5.6568.0265-.3146-.3116-.5666-.6625-.7559-1.0371Z"></path></symbol><symbol id="bbburst-shape-8" viewBox="0 0 87 168"><path d="m12 12 31.2546 18.0749c16.4102 9.4902 20.014 31.6325 7.4603 45.8369L36.3296 92.1884c-12.5684 14.2206-8.9394 36.3916 7.5068 45.8636L75 156" stroke-width="14" stroke-linecap="round" stroke-linejoin="round"></path></symbol><symbol id="bbburst-shape-9" viewBox="0 0 182 172"><path d="M13.5809 69.845 91 13.5967l77.419 56.2483-29.571 91.012H43.1524L13.5809 69.845Z" stroke-width="22"></path></symbol><symbol id="bbburst-shape-10" viewBox="0 0 145 145"><circle cx="72.5" cy="72.5" r="61.5" fill="none" stroke-width="22"></circle></symbol><symbol id="bbburst-shape-11" viewBox="0 0 194 167"><path d="M10.398 161 97 11l86.603 150H10.397Z" stroke-width="11"></path></symbol><symbol id="bbburst-shape-12" viewBox="0 0 170 151"><path d="M69.3728 54.2122 85 10.0031l15.627 44.2091c1.413 3.9958 5.19 6.6672 9.428 6.6673h49.312l-39.149 26.1447c-3.803 2.5401-5.399 7.3367-3.875 11.6488l15.179 42.94-40.9683-27.36c-3.3621-2.245-7.7453-2.245-11.1074 0l-40.9682 27.36 15.1785-42.94c1.5243-4.3121-.0712-9.1087-3.8746-11.6488L10.6333 60.8795h49.3112c4.2381-.0001 8.0159-2.6715 9.4283-6.6673Z" stroke-width="12"></path></symbol><symbol id="bbburst-shape-13" viewBox="0 0 159 159"><path stroke-width="22" d="M11 11h137v137H11z"></path></symbol><symbol id="bbburst-shape-14" viewBox="0 0 185 109"><path d="M168 16.5C168 58.1975 134.197 92 92.5 92 50.8025 92 17 58.1975 17 16.5" stroke-width="33" stroke-linecap="round"></path></symbol></defs><use xlink:href="#bbburst-shape-10" width="52.473868937290874" opacity="0.2401579605334967" transform="matrix(0.9439686993681841,0.8194041094680565,-0.8194041094680565,0.9439686993681841,734.5546449740048,-339.55546816282157)" fill="none" stroke="#00a19d" filter="url(#bbburst-blur-3)"></use><use xlink:href="#bbburst-shape-7" width="28.368268041082185" opacity="0.17792893755668704" transform="matrix(1.015286001165445,0.7291737350162031,-0.7291737350162031,1.015286001165445,631.5132502673076,350.56269189550164)" fill="#2c2891" filter="url(#bbburst-blur-3)"></use><use xlink:href="#bbburst-shape-3" width="24.012785065992322" opacity="0.6617964201014898" transform="matrix(0.945655229778502,-0.3251710109966271,0.3251710109966271,0.945655229778502,160.9364908035896,142.48538052519024)" fill="#ffa6d5" filter="url(#bbburst-blur-1)"></use><use xlink:href="#bbburst-shape-14" width="27.454147151624692" opacity="0.6810840995743914" transform="matrix(0.9051524081182855,-0.4250871887950386,0.4250871887950386,0.9051524081182855,79.1650002498099,81.80411270963896)" fill="none" stroke="#ffbd9b" filter="url(#bbburst-blur-1)"></use><use xlink:href="#bbburst-shape-2" width="52.142059155808305" opacity="0.226858486347718" transform="matrix(1.2348701969658713,0.1938958396806651,-0.1938958396806651,1.2348701969658713,678.8679248856292,-356.8804783140902)" fill="#ffbd9b" filter="url(#bbburst-blur-3)"></use><use xlink:href="#bbburst-shape-7" width="22.486015555250777" opacity="0.884985473465544" transform="matrix(0.8607061343380834,0.5091021020510454,-0.5091021020510454,0.8607061343380834,589.7446103019381,101.53588583496179)" fill="#ffbd9b"></use><use xlink:href="#bbburst-shape-10" width="42.775057835583716" opacity="-0.06044618115021905" transform="matrix(1.3231323289303873,-1.1453474757204687,1.1453474757204687,1.3231323289303873,-417.435159792622,-448.50254460140604)" fill="none" stroke="#00a19d" filter="url(#bbburst-blur-4)"></use><use xlink:href="#bbburst-shape-9" width="23.76824933640651" opacity="0.8466255272808939" transform="matrix(0.9707877282626617,0.23993996468829545,-0.23993996468829545,0.9707877282626617,545.8791702097072,40.19598411630977)" fill="none" stroke="#00a19d"></use><use xlink:href="#bbburst-shape-11" width="45.482860026373494" opacity="-0.05414483531487391" transform="matrix(1.7243735734338674,0.2983886379252982,-0.2983886379252982,1.7243735734338674,806.9001976344408,-641.5877913200984)" fill="none" stroke="#2c2891" filter="url(#bbburst-blur-4)"></use><use xlink:href="#bbburst-shape-8" width="32.011571848081786" opacity="0.5713719905197168" transform="matrix(0.9999961835090657,0.0027627825290731356,-0.0027627825290731356,0.9999961835090657,192.38062593537984,-7.991470378547547)" fill="none" stroke="#00a19d" filter="url(#bbburst-blur-1)"></use><use xlink:href="#bbburst-shape-2" width="38.0203400781536" opacity="0.5332207997364204" transform="matrix(0.8985597164245857,-0.4388512686764939,0.4388512686764939,0.8985597164245857,410.7123841114876,-3.787001564635375)" fill="#2c2891" filter="url(#bbburst-blur-2)"></use><use xlink:href="#bbburst-shape-3" width="48.49997806560907" opacity="0.4807713504392884" transform="matrix(0.7359478319463779,0.6770382475557979,-0.6770382475557979,0.7359478319463779,819.8146165208548,-74.35638765185982)" fill="#00a19d" filter="url(#bbburst-blur-2)"></use><use xlink:href="#bbburst-shape-8" width="43.4993418082854" opacity="0.08588760733073375" transform="matrix(1.2725703768176548,-1.2012762530101773,1.2012762530101773,1.2725703768176548,240.78449160148415,-300.6786282827928)" fill="none" stroke="#ffa6d5" filter="url(#bbburst-blur-4)"></use><use xlink:href="#bbburst-shape-14" width="25.61246336223577" opacity="0.47368758114883436" transform="matrix(0.7337803032996352,-0.679386831259994,0.679386831259994,0.7337803032996352,98.7022720032005,351.19387949689275)" fill="none" stroke="#2c2891" filter="url(#bbburst-blur-2)"></use><use xlink:href="#bbburst-shape-2" width="40.903611907871515" opacity="0.12492768385388953" transform="matrix(1.2489783582824474,-0.050527819486715954,0.050527819486715954,1.2489783582824474,524.3460945990751,-453.6810087745865)" fill="#2c2891" filter="url(#bbburst-blur-3)"></use><use xlink:href="#bbburst-shape-7" width="42.26700267136466" opacity="0.5449470154708125" transform="matrix(0.9079634715245595,0.4190493221293532,-0.4190493221293532,0.9079634715245595,374.01878192668676,-79.62813136940076)" fill="#00a19d" filter="url(#bbburst-blur-2)"></use><use xlink:href="#bbburst-shape-5" width="41.9594525660293" opacity="0.10289686661000241" transform="matrix(1.7342681199386198,-0.23412408710887714,0.23412408710887714,1.7342681199386198,469.59542244226105,62.08754157160104)" fill="#ff5c58" filter="url(#bbburst-blur-4)"></use><use xlink:href="#bbburst-shape-11" width="38.94364122544041" opacity="0.18563496135769797" transform="matrix(0.9521270399631798,0.8099099331227846,-0.8099099331227846,0.9521270399631798,351.3937989285664,-90.21438427036026)" fill="none" stroke="#00a19d" filter="url(#bbburst-blur-3)"></use><use xlink:href="#bbburst-shape-14" width="41.58851519750343" opacity="0.08557924525248561" transform="matrix(1.6620269022654786,-0.547874598923711,0.547874598923711,1.6620269022654786,499.3390531147583,-41.89796604838432)" fill="none" stroke="#2c2891" filter="url(#bbburst-blur-4)"></use><use xlink:href="#bbburst-shape-3" width="31.519574775407467" opacity="0.6636200900024338" transform="matrix(0.9453936015813511,-0.3259308793119204,0.3259308793119204,0.9453936015813511,331.1921722482758,-103.55366594910532)" fill="#ffa6d5" filter="url(#bbburst-blur-1)"></use><use xlink:href="#bbburst-shape-13" width="37.49937681873893" opacity="0.20735321896174452" transform="matrix(1.1718988182444692,-0.43491741721528787,0.43491741721528787,1.1718988182444692,-149.27472756658588,-11.79023750646752)" fill="none" stroke="#ffbd9b" filter="url(#bbburst-blur-3)"></use><use xlink:href="#bbburst-shape-11" width="31.34080224560056" opacity="0.6805916385474209" transform="matrix(0.9700082747340684,-0.2430718966631809,0.2430718966631809,0.9700082747340684,429.78409722045217,35.58439541462832)" fill="none" stroke="#ff5c58" filter="url(#bbburst-blur-1)"></use><use xlink:href="#bbburst-shape-14" width="28.796873746470887" opacity="0.7076423969388734" transform="matrix(0.9823856708601969,-0.1868646400166733,0.1868646400166733,0.9823856708601969,275.9223556965443,136.54061010257715)" fill="none" stroke="#ffbd9b" filter="url(#bbburst-blur-1)"></use><use xlink:href="#bbburst-shape-2" width="50.92083458770818" opacity="0.38980780385305913" transform="matrix(0.7158082443051851,-0.6982968977338568,0.6982968977338568,0.7158082443051851,-159.17067275983615,214.77823449018916)" fill="#ffbd9b" filter="url(#bbburst-blur-2)"></use><use xlink:href="#bbburst-shape-9" width="54.970037013867056" opacity="0.1340621014018475" transform="matrix(1.114393253456468,0.5662399461806878,-0.5662399461806878,1.114393253456468,388.8016310441985,-391.7050724048414)" fill="none" stroke="#2c2891" filter="url(#bbburst-blur-3)"></use><use xlink:href="#bbburst-shape-8" width="31.855188603255435" opacity="0.49856969043232646" transform="matrix(0.7328890969760172,-0.6803481252518288,0.6803481252518288,0.7328890969760172,333.0025015027885,180.18142750322676)" fill="none" stroke="#2c2891" filter="url(#bbburst-blur-2)"></use><use xlink:href="#bbburst-shape-5" width="39.19090448818905" opacity="0.08906044112782752" transform="matrix(1.6093776557572106,-0.6873162017219043,0.6873162017219043,1.6093776557572106,-104.81517345448347,128.45541613792204)" fill="#00a19d" filter="url(#bbburst-blur-4)"></use><use xlink:href="#bbburst-shape-10" width="37.91614980126786" opacity="0.3002461376644505" transform="matrix(1.0779733160599803,0.6328297795321027,-0.6328297795321027,1.0779733160599803,506.0084089293674,245.0938352762442)" fill="none" stroke="#ff5c58" filter="url(#bbburst-blur-3)"></use><use xlink:href="#bbburst-shape-7" width="42.58396710675542" opacity="0.5176772987685117" transform="matrix(0.9469730259619636,-0.3213130686735946,0.3213130686735946,0.9469730259619636,279.5391494032274,-187.09432669638272)" fill="#2c2891" filter="url(#bbburst-blur-2)"></use><use xlink:href="#bbburst-shape-1" width="27.30704005662304" opacity="0.6080683263018931" transform="matrix(0.9935543164057592,-0.11335704808914455,0.11335704808914455,0.9935543164057592,419.99035849417305,161.90043080060747)" fill="#ff5c58" filter="url(#bbburst-blur-1)"></use><use xlink:href="#bbburst-shape-6" width="25.472736621113924" opacity="0.9888886675832206" transform="matrix(0.9169692931972483,0.3989577864052021,-0.3989577864052021,0.9169692931972483,548.3502612556815,23.151123057360508)" fill="#bccc9a"></use><use xlink:href="#bbburst-shape-5" width="40.98187744154559" opacity="0.3929138947588352" transform="matrix(0.9930158660638571,-0.11798088720402057,0.11798088720402057,0.9930158660638571,162.09660301569468,-208.35020327683677)" fill="#ffbd9b" filter="url(#bbburst-blur-2)"></use><use xlink:href="#bbburst-shape-8" width="25.560634025913977" opacity="0.8311731052534562" transform="matrix(0.8237933608937559,-0.5668901997277516,0.5668901997277516,0.8237933608937559,230.30882848654318,43.0446166120073)" fill="none" stroke="#ffa6d5"></use><use xlink:href="#bbburst-shape-8" width="26.135780746218014" opacity="0.805504228146048" transform="matrix(0.9957167070641385,0.09245668863499612,-0.09245668863499612,0.9957167070641385,360.3112041219009,60.569690844730985)" fill="none" stroke="#ffa6d5"></use><use xlink:href="#bbburst-shape-9" width="31.66920848924789" opacity="0.19487989861982558" transform="matrix(1.218220933218154,-0.2800674166501528,0.2800674166501528,1.218220933218154,624.2670148688057,-13.96376922468636)" fill="none" stroke="#00a19d" filter="url(#bbburst-blur-3)"></use><use xlink:href="#bbburst-shape-4" width="24.473631784162237" opacity="0.8595374460784473" transform="matrix(0.7945074465080864,-0.607254409159127,0.607254409159127,0.7945074465080864,144.63101169110305,26.497616223522414)" fill="#ffa6d5"></use><use xlink:href="#bbburst-shape-3" width="34.38853372353992" opacity="0.32889982346754043" transform="matrix(0.9179670433043791,0.8484317930199317,-0.8484317930199317,0.9179670433043791,718.5656443446397,320.06895256512865)" fill="#ffa6d5" filter="url(#bbburst-blur-3)"></use><use xlink:href="#bbburst-shape-5" width="24.439802036566864" opacity="0.764081105096973" transform="matrix(0.7548758992903746,-0.655867651794589,0.655867651794589,0.7548758992903746,157.9240344766759,208.04809332730923)" fill="#2c2891" filter="url(#bbburst-blur-1)"></use><use xlink:href="#bbburst-shape-11" width="38.50402933140083" opacity="0.1867005958764978" transform="matrix(0.9020964562588107,0.8652872260731088,-0.8652872260731088,0.9020964562588107,642.042161715339,-333.4054300722592)" fill="none" stroke="#ff5c58" filter="url(#bbburst-blur-3)"></use><use xlink:href="#bbburst-shape-14" width="39.188147597154334" opacity="-0.0690133467780929" transform="matrix(1.7259285747310598,0.28925862982253847,-0.28925862982253847,1.7259285747310598,819.4995679191478,46.72011662185923)" fill="none" stroke="#ffbd9b" filter="url(#bbburst-blur-4)"></use><use xlink:href="#bbburst-shape-3" width="39.84315808272531" opacity="-0.06464929443750367" transform="matrix(1.7341513774443817,0.23498723392506585,-0.23498723392506585,1.7341513774443817,118.39899699406715,38.36387923891823)" fill="#2c2891" filter="url(#bbburst-blur-4)"></use><use xlink:href="#bbburst-shape-4" width="47.1550450736796" opacity="0.2877284089936355" transform="matrix(1.2492345412632373,-0.043738551814493196,0.043738551814493196,1.2492345412632373,90.04607338276111,-281.808694499406)" fill="#ffa6d5" filter="url(#bbburst-blur-3)"></use><use xlink:href="#bbburst-shape-7" width="29.17479421319727" opacity="0.7171280437974901" transform="matrix(0.8903694979592428,0.4552385716344848,-0.4552385716344848,0.8903694979592428,560.5688352056077,-89.85634935060915)" fill="#ffbd9b" filter="url(#bbburst-blur-1)"></use><use xlink:href="#bbburst-shape-11" width="30.068057933090355" opacity="0.5960544705479411" transform="matrix(0.8330874811795174,0.5531412556499175,-0.5531412556499175,0.8330874811795174,532.3192022265432,-106.70893695529148)" fill="none" stroke="#ff5c58" filter="url(#bbburst-blur-1)"></use><use xlink:href="#bbburst-shape-5" width="27.738963950891545" opacity="0.6766669429657511" transform="matrix(0.9658583010572708,-0.25907092132997583,0.25907092132997583,0.9658583010572708,410.8225383483614,-52.21515919689455)" fill="#00a19d" filter="url(#bbburst-blur-1)"></use><use xlink:href="#bbburst-shape-9" width="21.34656508097097" opacity="0.8422492468520374" transform="matrix(0.9544994581505896,0.2982126496147187,-0.2982126496147187,0.9544994581505896,438.2235349176285,11.704517699601524)" fill="none" stroke="#00a19d"></use><use xlink:href="#bbburst-shape-9" width="37.89828210672484" opacity="0.1843078127983121" transform="matrix(0.9475683696430537,-0.8152387287488281,0.8152387287488281,0.9475683696430537,309.86159337856986,301.04970851565633)" fill="none" stroke="#00a19d" filter="url(#bbburst-blur-3)"></use><use xlink:href="#bbburst-shape-8" width="42.96681296569198" opacity="0.1805376246599526" transform="matrix(1.2368323240714156,0.1809580120693769,-0.1809580120693769,1.2368323240714156,191.5343147856131,168.44773154645526)" fill="none" stroke="#ffbd9b" filter="url(#bbburst-blur-3)"></use><use xlink:href="#bbburst-shape-7" width="30.71080137483723" opacity="0.42985374987581715" transform="matrix(0.7091400983509853,0.7050676002418171,-0.7050676002418171,0.7091400983509853,760.9069397775578,345.7548530153603)" fill="#2c2891" filter="url(#bbburst-blur-2)"></use><use xlink:href="#bbburst-shape-3" width="28.905625553346418" opacity="0.3786670250146844" transform="matrix(0.9897767272946479,-0.14262548897688684,0.14262548897688684,0.9897767272946479,508.64051861256763,220.03146564246418)" fill="#00a19d" filter="url(#bbburst-blur-2)"></use><use xlink:href="#bbburst-shape-9" width="49.171551759766615" opacity="0.32958111610812457" transform="matrix(1.1083447406343998,-0.5779895638400964,0.5779895638400964,1.1083447406343998,410.82967599664727,-165.15516189700446)" fill="none" stroke="#ff5c58" filter="url(#bbburst-blur-3)"></use><use xlink:href="#bbburst-shape-4" width="32.88938005240131" opacity="0.18814471362813112" transform="matrix(1.197360051144739,-0.3589274410276649,0.3589274410276649,1.197360051144739,594.1791396289564,-148.59412049630163)" fill="#ffbd9b" filter="url(#bbburst-blur-3)"></use><use xlink:href="#bbburst-shape-8" width="40.79770696103436" opacity="0.3677559894847038" transform="matrix(0.8118246334898354,-0.5839013310989233,0.5839013310989233,0.8118246334898354,264.6595290377903,-173.14815404690307)" fill="none" stroke="#ff5c58" filter="url(#bbburst-blur-2)"></use><use xlink:href="#bbburst-shape-6" width="31.5771143184648" opacity="0.5016032985837597" transform="matrix(0.9596560389731993,-0.2811766115135989,0.2811766115135989,0.9596560389731993,166.89597700517743,218.5025980235095)" fill="#00a19d" filter="url(#bbburst-blur-2)"></use><use xlink:href="#bbburst-shape-9" width="26.63075488856069" opacity="0.5463193667622398" transform="matrix(0.9991335247003105,-0.04161970470743508,0.04161970470743508,0.9991335247003105,199.77468330599132,113.36794067779459)" fill="none" stroke="#ffbd9b" filter="url(#bbburst-blur-2)"></use><use xlink:href="#bbburst-shape-3" width="40.505099251596306" opacity="0.38881570086423445" transform="matrix(0.9959715768355892,-0.0896694938963635,0.0896694938963635,0.9959715768355892,73.09509153044263,-45.11835015077679)" fill="#2c2891" filter="url(#bbburst-blur-2)"></use><use xlink:href="#bbburst-shape-6" width="26.483941121399614" opacity="0.6074633728856742" transform="matrix(0.9146551118037605,0.4042351128381235,-0.4042351128381235,0.9146551118037605,553.8163925822271,205.37609766899328)" fill="#ffbd9b" filter="url(#bbburst-blur-1)"></use><use xlink:href="#bbburst-shape-10" width="32.76595109502813" opacity="0.7415760972152556" transform="matrix(0.98931171199478,0.14581610511173834,-0.14581610511173834,0.98931171199478,347.39405937695756,-65.57328931331244)" fill="none" stroke="#00a19d" filter="url(#bbburst-blur-1)"></use><use xlink:href="#bbburst-shape-10" width="30.457760503055624" opacity="0.3699140231892617" transform="matrix(0.9077621567784832,-0.41948524017046956,0.41948524017046956,0.9077621567784832,3.2941460869855916,228.03066645250084)" fill="none" stroke="#ffa6d5" filter="url(#bbburst-blur-2)"></use><use xlink:href="#bbburst-shape-6" width="41.93641250938533" opacity="0.3956551180699758" transform="matrix(0.9862864578765667,0.16504248849704,-0.16504248849704,0.9862864578765667,369.9366026449593,-259.26869501782664)" fill="#00a19d" filter="url(#bbburst-blur-2)"></use><use xlink:href="#bbburst-shape-5" width="25.674104547857777" opacity="0.7131430858387016" transform="matrix(0.9999073175292825,-0.013614563944345506,0.013614563944345506,0.9999073175292825,480.2132532610531,83.6494969327947)" fill="#ffbd9b" filter="url(#bbburst-blur-1)"></use><use xlink:href="#bbburst-shape-2" width="48.76563422999666" opacity="0.12401711242647151" transform="matrix(1.0393906807406323,0.6943824686651623,-0.6943824686651623,1.0393906807406323,306.63979896995556,156.659512716116)" fill="#ffa6d5" filter="url(#bbburst-blur-3)"></use><use xlink:href="#bbburst-shape-10" width="34.3896461464716" opacity="0.5452360867644108" transform="matrix(0.9524057679963736,-0.3048331561481426,0.3048331561481426,0.9524057679963736,420.6317375118208,153.18498572630415)" fill="none" stroke="#ff5c58" filter="url(#bbburst-blur-2)"></use><use xlink:href="#bbburst-shape-7" width="43.8748918736703" opacity="0.07216587479821135" transform="matrix(1.532814247588317,-0.8443817160445041,0.8443817160445041,1.532814247588317,-320.32299849837045,-424.14777356775284)" fill="#ffbd9b" filter="url(#bbburst-blur-4)"></use><use xlink:href="#bbburst-shape-2" width="42.99935580299522" opacity="0.2130141898297806" transform="matrix(1.2323890730777876,0.2090865193131099,-0.2090865193131099,1.2323890730777876,547.8337911771458,244.9078698093976)" fill="#2c2891" filter="url(#bbburst-blur-3)"></use><use xlink:href="#bbburst-shape-7" width="39.207619979653884" opacity="0.37129231789628525" transform="matrix(0.9857635188480871,-0.16813769627372985,0.16813769627372985,0.9857635188480871,596.1472287406032,3.644113876553206)" fill="#ffbd9b" filter="url(#bbburst-blur-2)"></use><use xlink:href="#bbburst-shape-5" width="47.684726769266184" opacity="0.31765451964767444" transform="matrix(1.2481491222878018,0.0679982980095107,-0.0679982980095107,1.2481491222878018,670.5128328064865,39.52768120672931)" fill="#bccc9a" filter="url(#bbburst-blur-3)"></use></svg>